<svg width="20" height="20" viewBox="0 0 20 20" fill="none" xmlns="http://www.w3.org/2000/svg">
<path d="M20 3.18001L8.59 14.6L4.35 10.36L5.76 8.95001L8.59 11.78L18.59 1.78001L20 3.18001ZM17.79 8.22001C17.92 8.79001 18 9.39001 18 10C18 14.42 14.42 18 10 18C5.58 18 2 14.42 2 10C2 5.58001 5.58 2.00001 10 2.00001C11.58 2.00001 13.04 2.46001 14.28 3.25001L15.72 1.81001C14.0464 0.629559 12.048 -0.00282112 10 9.46103e-06C4.48 9.46103e-06 0 4.48001 0 10C0 15.52 4.48 20 10 20C15.52 20 20 15.52 20 10C20 8.81001 19.78 7.67001 19.4 6.61001L17.79 8.22001Z" fill="#00FF00"/>
</svg>
