<svg width="32" height="32" viewBox="0 0 32 32" fill="none" xmlns="http://www.w3.org/2000/svg">
<path d="M12 20L8.04269 23.9573C7.60225 24.3977 7.04113 24.6975 6.43029 24.819C5.81944 24.9405 5.18629 24.8781 4.61089 24.6398C4.03549 24.4015 3.54366 23.9979 3.1976 23.4801C2.85154 22.9623 2.66679 22.3535 2.66669 21.7307V20L4.47602 10.9547C4.71768 9.74564 5.37077 8.65767 6.32417 7.87589C7.27758 7.09411 8.4724 6.6668 9.70535 6.66667H22.2947C23.5276 6.6668 24.7225 7.09411 25.6759 7.87589C26.6293 8.65767 27.2824 9.74564 27.524 10.9547L29.3334 20V21.7293C29.3333 22.3521 29.1485 22.9609 28.8024 23.4788C28.4564 23.9966 27.9646 24.4001 27.3892 24.6385C26.8137 24.8768 26.1806 24.9392 25.5698 24.8177C24.9589 24.6962 24.3978 24.3963 23.9574 23.956L20 20H12Z" stroke="black" stroke-width="2" stroke-linecap="round" stroke-linejoin="round"/>
<path d="M12 6.66667L13.3333 9.33334H18.6667L20 6.66667" stroke="black" stroke-width="2" stroke-linecap="round" stroke-linejoin="round"/>
</svg>
